<svg viewBox="0 0 512 512" xmlns="http://www.w3.org/2000/svg" role="img" aria-label="thrive">
  <defs>
    <radialGradient id="bg" cx="50%" cy="34%" r="80%">
      <stop offset="0%" stop-color="#16291C"/><stop offset="100%" stop-color="#0B140E"/>
    </radialGradient>
    <radialGradient id="leaf" cx="36%" cy="30%" r="72%">
      <stop offset="0%" stop-color="#CFF8E2"/><stop offset="45%" stop-color="#74EBAE"/><stop offset="100%" stop-color="#33B077"/>
    </radialGradient>
    <filter id="sh" x="-30%" y="-30%" width="160%" height="170%">
      <feDropShadow dx="0" dy="6" stdDeviation="9" flood-color="#000" flood-opacity="0.35"/>
    </filter>
    <linearGradient id="L0" gradientUnits="userSpaceOnUse" x1="267.4" y1="385.6" x2="244.6" y2="385.6"><stop offset="0%" stop-color="#143d29"/><stop offset="50%" stop-color="#26704a"/><stop offset="100%" stop-color="#143d29"/></linearGradient><linearGradient id="L1" gradientUnits="userSpaceOnUse" x1="241.5" y1="296.9" x2="228.4" y2="305.2"><stop offset="0%" stop-color="#215136"/><stop offset="50%" stop-color="#3d9463"/><stop offset="100%" stop-color="#215136"/></linearGradient><linearGradient id="L2" gradientUnits="userSpaceOnUse" x1="188.4" y1="249.1" x2="183.8" y2="258.5"><stop offset="0%" stop-color="#295c3e"/><stop offset="50%" stop-color="#4aa971"/><stop offset="100%" stop-color="#295c3e"/></linearGradient><linearGradient id="L3" gradientUnits="userSpaceOnUse" x1="133.9" y1="239.2" x2="134.6" y2="246.3"><stop offset="0%" stop-color="#2a5f3f"/><stop offset="50%" stop-color="#4dad74"/><stop offset="100%" stop-color="#2a5f3f"/></linearGradient><linearGradient id="L4" gradientUnits="userSpaceOnUse" x1="93.9" y1="255.0" x2="96.9" y2="258.8"><stop offset="0%" stop-color="#285c3d"/><stop offset="50%" stop-color="#49a770"/><stop offset="100%" stop-color="#285c3d"/></linearGradient><linearGradient id="L5" gradientUnits="userSpaceOnUse" x1="94.4" y1="234.8" x2="92.2" y2="239.2"><stop offset="0%" stop-color="#2b6040"/><stop offset="50%" stop-color="#4fb075"/><stop offset="100%" stop-color="#2b6040"/></linearGradient><linearGradient id="L6" gradientUnits="userSpaceOnUse" x1="148.5" y1="217.9" x2="142.4" y2="221.7"><stop offset="0%" stop-color="#2e6543"/><stop offset="50%" stop-color="#54b77a"/><stop offset="100%" stop-color="#2e6543"/></linearGradient><linearGradient id="L7" gradientUnits="userSpaceOnUse" x1="116.8" y1="188.8" x2="114.7" y2="193.2"><stop offset="0%" stop-color="#326b48"/><stop offset="50%" stop-color="#5cc483"/><stop offset="100%" stop-color="#326b48"/></linearGradient><linearGradient id="L8" gradientUnits="userSpaceOnUse" x1="135.1" y1="180.4" x2="130.2" y2="180.4"><stop offset="0%" stop-color="#346e49"/><stop offset="50%" stop-color="#5fc886"/><stop offset="100%" stop-color="#346e49"/></linearGradient><linearGradient id="L9" gradientUnits="userSpaceOnUse" x1="142.8" y1="229.5" x2="140.3" y2="234.7"><stop offset="0%" stop-color="#2c6241"/><stop offset="50%" stop-color="#50b277"/><stop offset="100%" stop-color="#2c6241"/></linearGradient><linearGradient id="L10" gradientUnits="userSpaceOnUse" x1="110.3" y1="223.5" x2="110.7" y2="227.4"><stop offset="0%" stop-color="#2d6342"/><stop offset="50%" stop-color="#52b579"/><stop offset="100%" stop-color="#2d6342"/></linearGradient><linearGradient id="L11" gradientUnits="userSpaceOnUse" x1="118.9" y1="210.6" x2="115.5" y2="212.7"><stop offset="0%" stop-color="#2f6744"/><stop offset="50%" stop-color="#56bb7d"/><stop offset="100%" stop-color="#2f6744"/></linearGradient><linearGradient id="L12" gradientUnits="userSpaceOnUse" x1="219.2" y1="236.4" x2="208.7" y2="236.4"><stop offset="0%" stop-color="#2b6140"/><stop offset="50%" stop-color="#4fb076"/><stop offset="100%" stop-color="#2b6140"/></linearGradient><linearGradient id="L13" gradientUnits="userSpaceOnUse" x1="204.2" y1="183.1" x2="198.1" y2="186.9"><stop offset="0%" stop-color="#336d49"/><stop offset="50%" stop-color="#5dc685"/><stop offset="100%" stop-color="#336d49"/></linearGradient><linearGradient id="L14" gradientUnits="userSpaceOnUse" x1="172.5" y1="154.0" x2="170.3" y2="158.4"><stop offset="0%" stop-color="#38744d"/><stop offset="50%" stop-color="#65d38d"/><stop offset="100%" stop-color="#38744d"/></linearGradient><linearGradient id="L15" gradientUnits="userSpaceOnUse" x1="190.8" y1="145.7" x2="185.9" y2="145.7"><stop offset="0%" stop-color="#39764f"/><stop offset="50%" stop-color="#68d790"/><stop offset="100%" stop-color="#39764f"/></linearGradient><linearGradient id="L16" gradientUnits="userSpaceOnUse" x1="229.8" y1="186.9" x2="223.7" y2="183.1"><stop offset="0%" stop-color="#336d49"/><stop offset="50%" stop-color="#5dc685"/><stop offset="100%" stop-color="#336d49"/></linearGradient><linearGradient id="L17" gradientUnits="userSpaceOnUse" x1="242.0" y1="145.7" x2="237.1" y2="145.7"><stop offset="0%" stop-color="#39764f"/><stop offset="50%" stop-color="#68d790"/><stop offset="100%" stop-color="#39764f"/></linearGradient><linearGradient id="L18" gradientUnits="userSpaceOnUse" x1="257.5" y1="158.4" x2="255.4" y2="154.0"><stop offset="0%" stop-color="#38744d"/><stop offset="50%" stop-color="#65d38d"/><stop offset="100%" stop-color="#38744d"/></linearGradient><linearGradient id="L19" gradientUnits="userSpaceOnUse" x1="216.8" y1="186.9" x2="211.1" y2="186.9"><stop offset="0%" stop-color="#336c48"/><stop offset="50%" stop-color="#5dc684"/><stop offset="100%" stop-color="#336c48"/></linearGradient><linearGradient id="L20" gradientUnits="userSpaceOnUse" x1="207.9" y1="155.0" x2="204.6" y2="157.0"><stop offset="0%" stop-color="#38744d"/><stop offset="50%" stop-color="#65d38d"/><stop offset="100%" stop-color="#38744d"/></linearGradient><linearGradient id="L21" gradientUnits="userSpaceOnUse" x1="223.3" y1="157.0" x2="220.0" y2="155.0"><stop offset="0%" stop-color="#38744d"/><stop offset="50%" stop-color="#65d38d"/><stop offset="100%" stop-color="#38744d"/></linearGradient><linearGradient id="L22" gradientUnits="userSpaceOnUse" x1="204.9" y1="244.9" x2="197.7" y2="249.4"><stop offset="0%" stop-color="#2a5e3f"/><stop offset="50%" stop-color="#4cab73"/><stop offset="100%" stop-color="#2a5e3f"/></linearGradient><linearGradient id="L23" gradientUnits="userSpaceOnUse" x1="173.2" y1="216.3" x2="170.7" y2="221.4"><stop offset="0%" stop-color="#2e6543"/><stop offset="50%" stop-color="#54b87b"/><stop offset="100%" stop-color="#2e6543"/></linearGradient><linearGradient id="L24" gradientUnits="userSpaceOnUse" x1="140.7" y1="210.3" x2="141.1" y2="214.2"><stop offset="0%" stop-color="#2f6644"/><stop offset="50%" stop-color="#56bb7d"/><stop offset="100%" stop-color="#2f6644"/></linearGradient><linearGradient id="L25" gradientUnits="userSpaceOnUse" x1="149.3" y1="197.4" x2="146.0" y2="199.4"><stop offset="0%" stop-color="#316a47"/><stop offset="50%" stop-color="#5ac181"/><stop offset="100%" stop-color="#316a47"/></linearGradient><linearGradient id="L26" gradientUnits="userSpaceOnUse" x1="191.6" y1="208.4" x2="185.8" y2="208.4"><stop offset="0%" stop-color="#306745"/><stop offset="50%" stop-color="#57bc7e"/><stop offset="100%" stop-color="#306745"/></linearGradient><linearGradient id="L27" gradientUnits="userSpaceOnUse" x1="182.7" y1="176.5" x2="179.4" y2="178.6"><stop offset="0%" stop-color="#346f4a"/><stop offset="50%" stop-color="#5fca87"/><stop offset="100%" stop-color="#346f4a"/></linearGradient><linearGradient id="L28" gradientUnits="userSpaceOnUse" x1="198.0" y1="178.6" x2="194.7" y2="176.5"><stop offset="0%" stop-color="#346f4a"/><stop offset="50%" stop-color="#5fca87"/><stop offset="100%" stop-color="#346f4a"/></linearGradient><linearGradient id="L29" gradientUnits="userSpaceOnUse" x1="183.1" y1="213.7" x2="179.2" y2="216.1"><stop offset="0%" stop-color="#2f6644"/><stop offset="50%" stop-color="#55b97c"/><stop offset="100%" stop-color="#2f6644"/></linearGradient><linearGradient id="L30" gradientUnits="userSpaceOnUse" x1="164.2" y1="196.5" x2="162.8" y2="199.3"><stop offset="0%" stop-color="#316a47"/><stop offset="50%" stop-color="#5ac181"/><stop offset="100%" stop-color="#316a47"/></linearGradient><linearGradient id="L31" gradientUnits="userSpaceOnUse" x1="175.1" y1="191.6" x2="172.0" y2="191.6"><stop offset="0%" stop-color="#326b48"/><stop offset="50%" stop-color="#5cc383"/><stop offset="100%" stop-color="#326b48"/></linearGradient><linearGradient id="L32" gradientUnits="userSpaceOnUse" x1="283.6" y1="305.2" x2="270.5" y2="296.9"><stop offset="0%" stop-color="#215136"/><stop offset="50%" stop-color="#3d9463"/><stop offset="100%" stop-color="#215136"/></linearGradient><linearGradient id="L33" gradientUnits="userSpaceOnUse" x1="303.3" y1="236.4" x2="292.8" y2="236.4"><stop offset="0%" stop-color="#2b6140"/><stop offset="50%" stop-color="#4fb076"/><stop offset="100%" stop-color="#2b6140"/></linearGradient><linearGradient id="L34" gradientUnits="userSpaceOnUse" x1="288.3" y1="183.1" x2="282.2" y2="186.9"><stop offset="0%" stop-color="#336d49"/><stop offset="50%" stop-color="#5dc685"/><stop offset="100%" stop-color="#336d49"/></linearGradient><linearGradient id="L35" gradientUnits="userSpaceOnUse" x1="256.6" y1="154.0" x2="254.5" y2="158.4"><stop offset="0%" stop-color="#38744d"/><stop offset="50%" stop-color="#65d38d"/><stop offset="100%" stop-color="#38744d"/></linearGradient><linearGradient id="L36" gradientUnits="userSpaceOnUse" x1="274.9" y1="145.7" x2="270.0" y2="145.7"><stop offset="0%" stop-color="#39764f"/><stop offset="50%" stop-color="#68d790"/><stop offset="100%" stop-color="#39764f"/></linearGradient><linearGradient id="L37" gradientUnits="userSpaceOnUse" x1="313.9" y1="186.9" x2="307.8" y2="183.1"><stop offset="0%" stop-color="#336d49"/><stop offset="50%" stop-color="#5dc685"/><stop offset="100%" stop-color="#336d49"/></linearGradient><linearGradient id="L38" gradientUnits="userSpaceOnUse" x1="326.1" y1="145.7" x2="321.2" y2="145.7"><stop offset="0%" stop-color="#39764f"/><stop offset="50%" stop-color="#68d790"/><stop offset="100%" stop-color="#39764f"/></linearGradient><linearGradient id="L39" gradientUnits="userSpaceOnUse" x1="341.7" y1="158.4" x2="339.5" y2="154.0"><stop offset="0%" stop-color="#38744d"/><stop offset="50%" stop-color="#65d38d"/><stop offset="100%" stop-color="#38744d"/></linearGradient><linearGradient id="L40" gradientUnits="userSpaceOnUse" x1="300.9" y1="186.9" x2="295.2" y2="186.9"><stop offset="0%" stop-color="#336c48"/><stop offset="50%" stop-color="#5dc684"/><stop offset="100%" stop-color="#336c48"/></linearGradient><linearGradient id="L41" gradientUnits="userSpaceOnUse" x1="292.0" y1="155.0" x2="288.7" y2="157.0"><stop offset="0%" stop-color="#38744d"/><stop offset="50%" stop-color="#65d38d"/><stop offset="100%" stop-color="#38744d"/></linearGradient><linearGradient id="L42" gradientUnits="userSpaceOnUse" x1="307.4" y1="157.0" x2="304.1" y2="155.0"><stop offset="0%" stop-color="#38744d"/><stop offset="50%" stop-color="#65d38d"/><stop offset="100%" stop-color="#38744d"/></linearGradient><linearGradient id="L43" gradientUnits="userSpaceOnUse" x1="328.2" y1="258.5" x2="323.6" y2="249.1"><stop offset="0%" stop-color="#295c3e"/><stop offset="50%" stop-color="#4aa971"/><stop offset="100%" stop-color="#295c3e"/></linearGradient><linearGradient id="L44" gradientUnits="userSpaceOnUse" x1="369.6" y1="221.7" x2="363.5" y2="217.9"><stop offset="0%" stop-color="#2e6543"/><stop offset="50%" stop-color="#54b77a"/><stop offset="100%" stop-color="#2e6543"/></linearGradient><linearGradient id="L45" gradientUnits="userSpaceOnUse" x1="381.8" y1="180.4" x2="376.9" y2="180.4"><stop offset="0%" stop-color="#346e49"/><stop offset="50%" stop-color="#5fc886"/><stop offset="100%" stop-color="#346e49"/></linearGradient><linearGradient id="L46" gradientUnits="userSpaceOnUse" x1="397.3" y1="193.2" x2="395.2" y2="188.8"><stop offset="0%" stop-color="#326b48"/><stop offset="50%" stop-color="#5cc483"/><stop offset="100%" stop-color="#326b48"/></linearGradient><linearGradient id="L47" gradientUnits="userSpaceOnUse" x1="377.4" y1="246.3" x2="378.1" y2="239.2"><stop offset="0%" stop-color="#2a5f3f"/><stop offset="50%" stop-color="#4dad74"/><stop offset="100%" stop-color="#2a5f3f"/></linearGradient><linearGradient id="L48" gradientUnits="userSpaceOnUse" x1="419.8" y1="239.2" x2="417.6" y2="234.8"><stop offset="0%" stop-color="#2b6040"/><stop offset="50%" stop-color="#4fb075"/><stop offset="100%" stop-color="#2b6040"/></linearGradient><linearGradient id="L49" gradientUnits="userSpaceOnUse" x1="415.1" y1="258.8" x2="418.1" y2="255.0"><stop offset="0%" stop-color="#285c3d"/><stop offset="50%" stop-color="#49a770"/><stop offset="100%" stop-color="#285c3d"/></linearGradient><linearGradient id="L50" gradientUnits="userSpaceOnUse" x1="371.7" y1="234.7" x2="369.2" y2="229.5"><stop offset="0%" stop-color="#2c6241"/><stop offset="50%" stop-color="#50b277"/><stop offset="100%" stop-color="#2c6241"/></linearGradient><linearGradient id="L51" gradientUnits="userSpaceOnUse" x1="396.5" y1="212.7" x2="393.1" y2="210.6"><stop offset="0%" stop-color="#2f6744"/><stop offset="50%" stop-color="#56bb7d"/><stop offset="100%" stop-color="#2f6744"/></linearGradient><linearGradient id="L52" gradientUnits="userSpaceOnUse" x1="401.3" y1="227.4" x2="401.7" y2="223.5"><stop offset="0%" stop-color="#2d6342"/><stop offset="50%" stop-color="#52b579"/><stop offset="100%" stop-color="#2d6342"/></linearGradient><linearGradient id="L53" gradientUnits="userSpaceOnUse" x1="314.3" y1="249.4" x2="307.1" y2="244.9"><stop offset="0%" stop-color="#2a5e3f"/><stop offset="50%" stop-color="#4cab73"/><stop offset="100%" stop-color="#2a5e3f"/></linearGradient><linearGradient id="L54" gradientUnits="userSpaceOnUse" x1="326.2" y1="208.4" x2="320.4" y2="208.4"><stop offset="0%" stop-color="#306745"/><stop offset="50%" stop-color="#57bc7e"/><stop offset="100%" stop-color="#306745"/></linearGradient><linearGradient id="L55" gradientUnits="userSpaceOnUse" x1="317.3" y1="176.5" x2="314.0" y2="178.6"><stop offset="0%" stop-color="#346f4a"/><stop offset="50%" stop-color="#5fca87"/><stop offset="100%" stop-color="#346f4a"/></linearGradient><linearGradient id="L56" gradientUnits="userSpaceOnUse" x1="332.6" y1="178.6" x2="329.3" y2="176.5"><stop offset="0%" stop-color="#346f4a"/><stop offset="50%" stop-color="#5fca87"/><stop offset="100%" stop-color="#346f4a"/></linearGradient><linearGradient id="L57" gradientUnits="userSpaceOnUse" x1="341.3" y1="221.4" x2="338.8" y2="216.3"><stop offset="0%" stop-color="#2e6543"/><stop offset="50%" stop-color="#54b87b"/><stop offset="100%" stop-color="#2e6543"/></linearGradient><linearGradient id="L58" gradientUnits="userSpaceOnUse" x1="366.0" y1="199.4" x2="362.7" y2="197.4"><stop offset="0%" stop-color="#316a47"/><stop offset="50%" stop-color="#5ac181"/><stop offset="100%" stop-color="#316a47"/></linearGradient><linearGradient id="L59" gradientUnits="userSpaceOnUse" x1="370.9" y1="214.2" x2="371.3" y2="210.3"><stop offset="0%" stop-color="#2f6644"/><stop offset="50%" stop-color="#56bb7d"/><stop offset="100%" stop-color="#2f6644"/></linearGradient><linearGradient id="L60" gradientUnits="userSpaceOnUse" x1="332.8" y1="216.1" x2="328.9" y2="213.7"><stop offset="0%" stop-color="#2f6644"/><stop offset="50%" stop-color="#55b97c"/><stop offset="100%" stop-color="#2f6644"/></linearGradient><linearGradient id="L61" gradientUnits="userSpaceOnUse" x1="340.0" y1="191.6" x2="336.9" y2="191.6"><stop offset="0%" stop-color="#326b48"/><stop offset="50%" stop-color="#5cc383"/><stop offset="100%" stop-color="#326b48"/></linearGradient><linearGradient id="L62" gradientUnits="userSpaceOnUse" x1="349.2" y1="199.3" x2="347.8" y2="196.5"><stop offset="0%" stop-color="#316a47"/><stop offset="50%" stop-color="#5ac181"/><stop offset="100%" stop-color="#316a47"/></linearGradient><linearGradient id="L63" gradientUnits="userSpaceOnUse" x1="262.2" y1="304.2" x2="249.8" y2="304.2"><stop offset="0%" stop-color="#215036"/><stop offset="50%" stop-color="#3c9362"/><stop offset="100%" stop-color="#215036"/></linearGradient><linearGradient id="L64" gradientUnits="userSpaceOnUse" x1="247.0" y1="251.2" x2="239.8" y2="255.7"><stop offset="0%" stop-color="#295d3e"/><stop offset="50%" stop-color="#4aa971"/><stop offset="100%" stop-color="#295d3e"/></linearGradient><linearGradient id="L65" gradientUnits="userSpaceOnUse" x1="215.3" y1="222.5" x2="212.8" y2="227.7"><stop offset="0%" stop-color="#2d6342"/><stop offset="50%" stop-color="#52b579"/><stop offset="100%" stop-color="#2d6342"/></linearGradient><linearGradient id="L66" gradientUnits="userSpaceOnUse" x1="182.8" y1="216.5" x2="183.2" y2="220.4"><stop offset="0%" stop-color="#2e6543"/><stop offset="50%" stop-color="#54b87b"/><stop offset="100%" stop-color="#2e6543"/></linearGradient><linearGradient id="L67" gradientUnits="userSpaceOnUse" x1="191.3" y1="203.6" x2="188.0" y2="205.7"><stop offset="0%" stop-color="#306846"/><stop offset="50%" stop-color="#58be7f"/><stop offset="100%" stop-color="#306846"/></linearGradient><linearGradient id="L68" gradientUnits="userSpaceOnUse" x1="233.6" y1="214.7" x2="227.9" y2="214.7"><stop offset="0%" stop-color="#2f6644"/><stop offset="50%" stop-color="#55b97c"/><stop offset="100%" stop-color="#2f6644"/></linearGradient><linearGradient id="L69" gradientUnits="userSpaceOnUse" x1="224.7" y1="182.8" x2="221.4" y2="184.8"><stop offset="0%" stop-color="#336d49"/><stop offset="50%" stop-color="#5ec785"/><stop offset="100%" stop-color="#336d49"/></linearGradient><linearGradient id="L70" gradientUnits="userSpaceOnUse" x1="240.1" y1="184.8" x2="236.8" y2="182.8"><stop offset="0%" stop-color="#336d49"/><stop offset="50%" stop-color="#5ec785"/><stop offset="100%" stop-color="#336d49"/></linearGradient><linearGradient id="L71" gradientUnits="userSpaceOnUse" x1="225.1" y1="219.9" x2="221.2" y2="222.3"><stop offset="0%" stop-color="#2e6443"/><stop offset="50%" stop-color="#53b77a"/><stop offset="100%" stop-color="#2e6443"/></linearGradient><linearGradient id="L72" gradientUnits="userSpaceOnUse" x1="206.3" y1="202.7" x2="204.9" y2="205.5"><stop offset="0%" stop-color="#306846"/><stop offset="50%" stop-color="#58be7f"/><stop offset="100%" stop-color="#306846"/></linearGradient><linearGradient id="L73" gradientUnits="userSpaceOnUse" x1="217.2" y1="197.9" x2="214.1" y2="197.9"><stop offset="0%" stop-color="#316a47"/><stop offset="50%" stop-color="#5ac181"/><stop offset="100%" stop-color="#316a47"/></linearGradient><linearGradient id="L74" gradientUnits="userSpaceOnUse" x1="272.2" y1="255.7" x2="265.0" y2="251.2"><stop offset="0%" stop-color="#295d3e"/><stop offset="50%" stop-color="#4aa971"/><stop offset="100%" stop-color="#295d3e"/></linearGradient><linearGradient id="L75" gradientUnits="userSpaceOnUse" x1="284.1" y1="214.7" x2="278.4" y2="214.7"><stop offset="0%" stop-color="#2f6644"/><stop offset="50%" stop-color="#55b97c"/><stop offset="100%" stop-color="#2f6644"/></linearGradient><linearGradient id="L76" gradientUnits="userSpaceOnUse" x1="275.2" y1="182.8" x2="271.9" y2="184.8"><stop offset="0%" stop-color="#336d49"/><stop offset="50%" stop-color="#5ec785"/><stop offset="100%" stop-color="#336d49"/></linearGradient><linearGradient id="L77" gradientUnits="userSpaceOnUse" x1="290.6" y1="184.8" x2="287.3" y2="182.8"><stop offset="0%" stop-color="#336d49"/><stop offset="50%" stop-color="#5ec785"/><stop offset="100%" stop-color="#336d49"/></linearGradient><linearGradient id="L78" gradientUnits="userSpaceOnUse" x1="299.2" y1="227.7" x2="296.7" y2="222.5"><stop offset="0%" stop-color="#2d6342"/><stop offset="50%" stop-color="#52b579"/><stop offset="100%" stop-color="#2d6342"/></linearGradient><linearGradient id="L79" gradientUnits="userSpaceOnUse" x1="324.0" y1="205.7" x2="320.7" y2="203.6"><stop offset="0%" stop-color="#306846"/><stop offset="50%" stop-color="#58be7f"/><stop offset="100%" stop-color="#306846"/></linearGradient><linearGradient id="L80" gradientUnits="userSpaceOnUse" x1="328.8" y1="220.4" x2="329.2" y2="216.5"><stop offset="0%" stop-color="#2e6543"/><stop offset="50%" stop-color="#54b87b"/><stop offset="100%" stop-color="#2e6543"/></linearGradient><linearGradient id="L81" gradientUnits="userSpaceOnUse" x1="290.8" y1="222.3" x2="286.9" y2="219.9"><stop offset="0%" stop-color="#2e6443"/><stop offset="50%" stop-color="#53b77a"/><stop offset="100%" stop-color="#2e6443"/></linearGradient><linearGradient id="L82" gradientUnits="userSpaceOnUse" x1="297.9" y1="197.9" x2="294.8" y2="197.9"><stop offset="0%" stop-color="#316a47"/><stop offset="50%" stop-color="#5ac181"/><stop offset="100%" stop-color="#316a47"/></linearGradient><linearGradient id="L83" gradientUnits="userSpaceOnUse" x1="307.1" y1="205.5" x2="305.7" y2="202.7"><stop offset="0%" stop-color="#306846"/><stop offset="50%" stop-color="#58be7f"/><stop offset="100%" stop-color="#306846"/></linearGradient><linearGradient id="L84" gradientUnits="userSpaceOnUse" x1="259.4" y1="255.3" x2="252.6" y2="255.3"><stop offset="0%" stop-color="#285c3d"/><stop offset="50%" stop-color="#4aa870"/><stop offset="100%" stop-color="#285c3d"/></linearGradient><linearGradient id="L85" gradientUnits="userSpaceOnUse" x1="250.4" y1="223.7" x2="246.5" y2="226.1"><stop offset="0%" stop-color="#2d6342"/><stop offset="50%" stop-color="#52b579"/><stop offset="100%" stop-color="#2d6342"/></linearGradient><linearGradient id="L86" gradientUnits="userSpaceOnUse" x1="231.5" y1="206.5" x2="230.2" y2="209.3"><stop offset="0%" stop-color="#306745"/><stop offset="50%" stop-color="#57bc7e"/><stop offset="100%" stop-color="#306745"/></linearGradient><linearGradient id="L87" gradientUnits="userSpaceOnUse" x1="242.4" y1="201.6" x2="239.3" y2="201.6"><stop offset="0%" stop-color="#316946"/><stop offset="50%" stop-color="#59bf80"/><stop offset="100%" stop-color="#316946"/></linearGradient><linearGradient id="L88" gradientUnits="userSpaceOnUse" x1="265.5" y1="226.1" x2="261.6" y2="223.7"><stop offset="0%" stop-color="#2d6342"/><stop offset="50%" stop-color="#52b579"/><stop offset="100%" stop-color="#2d6342"/></linearGradient><linearGradient id="L89" gradientUnits="userSpaceOnUse" x1="272.7" y1="201.6" x2="269.6" y2="201.6"><stop offset="0%" stop-color="#316946"/><stop offset="50%" stop-color="#59bf80"/><stop offset="100%" stop-color="#316946"/></linearGradient><linearGradient id="L90" gradientUnits="userSpaceOnUse" x1="281.8" y1="209.3" x2="280.5" y2="206.5"><stop offset="0%" stop-color="#306745"/><stop offset="50%" stop-color="#57bc7e"/><stop offset="100%" stop-color="#306745"/></linearGradient><linearGradient id="L91" gradientUnits="userSpaceOnUse" x1="257.8" y1="226.0" x2="254.2" y2="226.0"><stop offset="0%" stop-color="#2d6342"/><stop offset="50%" stop-color="#52b579"/><stop offset="100%" stop-color="#2d6342"/></linearGradient><linearGradient id="L92" gradientUnits="userSpaceOnUse" x1="252.5" y1="207.1" x2="250.4" y2="208.4"><stop offset="0%" stop-color="#306745"/><stop offset="50%" stop-color="#57bc7e"/><stop offset="100%" stop-color="#306745"/></linearGradient><linearGradient id="L93" gradientUnits="userSpaceOnUse" x1="261.6" y1="208.4" x2="259.5" y2="207.1"><stop offset="0%" stop-color="#306745"/><stop offset="50%" stop-color="#57bc7e"/><stop offset="100%" stop-color="#306745"/></linearGradient>
  </defs>
  <rect width="512" height="512" rx="112" fill="url(#bg)"/>
  <g filter="url(#sh)">
    <path d="M269.6 436.5 L265.2 334.7 L246.8 334.7 L242.4 436.5 Z" fill="url(#L0)"/><path d="M263.8 329.8 L219.3 264.1 L208.6 270.7 L248.2 339.6 Z" fill="url(#L1)"/><path d="M216.7 261.7 L160.1 236.4 L156.4 244.1 L211.2 273.0 Z" fill="url(#L2)"/><path d="M157.8 236.0 L109.9 242.4 L110.5 248.2 L158.7 244.5 Z" fill="url(#L3)"/><path d="M108.5 243.0 L79.3 266.9 L81.8 270.0 L112.0 247.6 Z" fill="url(#L4)"/><path d="M111.5 242.7 L77.2 227.0 L75.5 230.5 L109.0 247.9 Z" fill="url(#L5)"/><path d="M161.9 238.0 L135.1 197.7 L130.2 200.8 L154.7 242.5 Z" fill="url(#L6)"/><path d="M134.0 196.7 L99.7 181.0 L98.0 184.5 L131.4 201.9 Z" fill="url(#L7)"/><path d="M135.6 199.3 L134.7 161.6 L130.7 161.6 L129.8 199.3 Z" fill="url(#L8)"/><path d="M159.8 237.2 L125.9 221.9 L123.9 226.0 L156.8 243.3 Z" fill="url(#L9)"/><path d="M124.6 221.6 L95.9 225.4 L96.2 228.5 L125.1 226.3 Z" fill="url(#L10)"/><path d="M126.8 222.7 L110.9 198.5 L108.2 200.2 L122.9 225.2 Z" fill="url(#L11)"/><path d="M220.2 267.4 L218.2 205.5 L209.7 205.5 L207.7 267.4 Z" fill="url(#L12)"/><path d="M217.5 203.2 L190.8 163.0 L185.9 166.0 L210.3 207.7 Z" fill="url(#L13)"/><path d="M189.6 161.9 L155.3 146.2 L153.6 149.8 L187.1 167.1 Z" fill="url(#L14)"/><path d="M191.2 164.5 L190.3 126.8 L186.4 126.8 L185.4 164.5 Z" fill="url(#L15)"/><path d="M217.5 207.7 L242.0 166.0 L237.1 163.0 L210.3 203.2 Z" fill="url(#L16)"/><path d="M242.4 164.5 L241.5 126.8 L237.6 126.8 L236.6 164.5 Z" fill="url(#L17)"/><path d="M240.8 167.1 L274.3 149.8 L272.5 146.2 L238.3 161.9 Z" fill="url(#L18)"/><path d="M217.3 205.5 L216.3 168.3 L211.6 168.3 L210.5 205.5 Z" fill="url(#L19)"/><path d="M215.9 167.1 L199.9 142.9 L197.2 144.6 L212.0 169.5 Z" fill="url(#L20)"/><path d="M215.9 169.5 L230.6 144.6 L227.9 142.9 L212.0 167.1 Z" fill="url(#L21)"/><path d="M218.2 264.7 L191.6 225.2 L185.8 228.8 L209.7 270.0 Z" fill="url(#L22)"/><path d="M190.2 223.9 L156.3 208.6 L154.3 212.8 L187.2 230.1 Z" fill="url(#L23)"/><path d="M155.1 208.4 L126.3 212.2 L126.6 215.3 L155.5 213.0 Z" fill="url(#L24)"/><path d="M157.3 209.5 L141.3 185.3 L138.6 187.0 L153.3 211.9 Z" fill="url(#L25)"/><path d="M192.1 227.0 L191.0 189.8 L186.4 189.8 L185.3 227.0 Z" fill="url(#L26)"/><path d="M190.7 188.6 L174.7 164.4 L172.0 166.1 L186.7 191.1 Z" fill="url(#L27)"/><path d="M190.7 191.1 L205.4 166.1 L202.7 164.4 L186.7 188.6 Z" fill="url(#L28)"/><path d="M191.0 225.5 L175.1 201.8 L172.0 203.7 L186.4 228.4 Z" fill="url(#L29)"/><path d="M174.4 201.1 L154.1 191.8 L153.0 194.1 L172.7 204.4 Z" fill="url(#L30)"/><path d="M175.4 202.7 L174.8 180.5 L172.3 180.5 L171.7 202.7 Z" fill="url(#L31)"/><path d="M263.8 339.6 L303.4 270.7 L292.7 264.1 L248.2 329.8 Z" fill="url(#L32)"/><path d="M304.3 267.4 L302.3 205.5 L293.8 205.5 L291.8 267.4 Z" fill="url(#L33)"/><path d="M301.7 203.2 L274.9 163.0 L270.0 166.0 L294.5 207.7 Z" fill="url(#L34)"/><path d="M273.7 161.9 L239.5 146.2 L237.7 149.8 L271.2 167.1 Z" fill="url(#L35)"/><path d="M275.4 164.5 L274.4 126.8 L270.5 126.8 L269.6 164.5 Z" fill="url(#L36)"/><path d="M301.7 207.7 L326.1 166.0 L321.2 163.0 L294.5 203.2 Z" fill="url(#L37)"/><path d="M326.6 164.5 L325.6 126.8 L321.7 126.8 L320.8 164.5 Z" fill="url(#L38)"/><path d="M324.9 167.1 L358.4 149.8 L356.7 146.2 L322.4 161.9 Z" fill="url(#L39)"/><path d="M301.5 205.5 L300.4 168.3 L295.7 168.3 L294.7 205.5 Z" fill="url(#L40)"/><path d="M300.0 167.1 L284.1 142.9 L281.4 144.6 L296.1 169.5 Z" fill="url(#L41)"/><path d="M300.0 169.5 L314.8 144.6 L312.1 142.9 L296.1 167.1 Z" fill="url(#L42)"/><path d="M300.8 273.0 L355.6 244.1 L351.9 236.4 L295.3 261.7 Z" fill="url(#L43)"/><path d="M357.3 242.5 L381.8 200.8 L376.9 197.7 L350.1 238.0 Z" fill="url(#L44)"/><path d="M382.2 199.3 L381.3 161.6 L377.3 161.6 L376.4 199.3 Z" fill="url(#L45)"/><path d="M380.6 201.9 L414.0 184.5 L412.3 181.0 L378.0 196.7 Z" fill="url(#L46)"/><path d="M353.3 244.5 L401.5 248.2 L402.1 242.4 L354.2 236.0 Z" fill="url(#L47)"/><path d="M403.0 247.9 L436.5 230.5 L434.8 227.0 L400.5 242.7 Z" fill="url(#L48)"/><path d="M400.0 247.6 L430.2 270.0 L432.7 266.9 L403.5 243.0 Z" fill="url(#L49)"/><path d="M355.2 243.3 L388.1 226.0 L386.1 221.9 L352.2 237.2 Z" fill="url(#L50)"/><path d="M389.1 225.2 L403.8 200.2 L401.1 198.5 L385.2 222.7 Z" fill="url(#L51)"/><path d="M386.9 226.3 L415.8 228.5 L416.1 225.4 L387.4 221.6 Z" fill="url(#L52)"/><path d="M302.3 270.0 L326.2 228.8 L320.4 225.2 L293.8 264.7 Z" fill="url(#L53)"/><path d="M326.7 227.0 L325.6 189.8 L321.0 189.8 L319.9 227.0 Z" fill="url(#L54)"/><path d="M325.3 188.6 L309.3 164.4 L306.6 166.1 L321.3 191.1 Z" fill="url(#L55)"/><path d="M325.3 191.1 L340.0 166.1 L337.3 164.4 L321.3 188.6 Z" fill="url(#L56)"/><path d="M324.8 230.1 L357.7 212.8 L355.7 208.6 L321.8 223.9 Z" fill="url(#L57)"/><path d="M358.7 211.9 L373.4 187.0 L370.7 185.3 L354.7 209.5 Z" fill="url(#L58)"/><path d="M356.5 213.0 L385.4 215.3 L385.7 212.2 L356.9 208.4 Z" fill="url(#L59)"/><path d="M325.6 228.4 L340.0 203.7 L336.9 201.8 L321.0 225.5 Z" fill="url(#L60)"/><path d="M340.3 202.7 L339.7 180.5 L337.2 180.5 L336.6 202.7 Z" fill="url(#L61)"/><path d="M339.3 204.4 L359.0 194.1 L357.9 191.8 L337.6 201.1 Z" fill="url(#L62)"/><path d="M263.4 334.7 L261.0 273.6 L251.0 273.6 L248.6 334.7 Z" fill="url(#L63)"/><path d="M260.3 271.0 L233.7 231.4 L227.9 235.1 L251.7 276.3 Z" fill="url(#L64)"/><path d="M232.3 230.2 L198.4 214.9 L196.3 219.0 L229.3 236.3 Z" fill="url(#L65)"/><path d="M197.1 214.6 L168.4 218.4 L168.7 221.6 L197.6 219.3 Z" fill="url(#L66)"/><path d="M199.3 215.7 L183.3 191.5 L180.7 193.2 L195.4 218.2 Z" fill="url(#L67)"/><path d="M234.2 233.2 L233.1 196.1 L228.4 196.1 L227.3 233.2 Z" fill="url(#L68)"/><path d="M232.7 194.9 L216.7 170.7 L214.1 172.3 L228.8 197.3 Z" fill="url(#L69)"/><path d="M232.7 197.3 L247.5 172.3 L244.8 170.7 L228.8 194.9 Z" fill="url(#L70)"/><path d="M233.1 231.8 L217.2 208.0 L214.0 210.0 L228.4 234.7 Z" fill="url(#L71)"/><path d="M216.4 207.3 L196.1 198.1 L195.0 200.4 L214.8 210.7 Z" fill="url(#L72)"/><path d="M217.5 209.0 L216.9 186.7 L214.4 186.7 L213.8 209.0 Z" fill="url(#L73)"/><path d="M260.3 276.3 L284.1 235.1 L278.3 231.4 L251.7 271.0 Z" fill="url(#L74)"/><path d="M284.7 233.2 L283.6 196.1 L278.9 196.1 L277.8 233.2 Z" fill="url(#L75)"/><path d="M283.2 194.9 L267.2 170.7 L264.5 172.3 L279.3 197.3 Z" fill="url(#L76)"/><path d="M283.2 197.3 L297.9 172.3 L295.3 170.7 L279.3 194.9 Z" fill="url(#L77)"/><path d="M282.7 236.3 L315.7 219.0 L313.6 214.9 L279.7 230.2 Z" fill="url(#L78)"/><path d="M316.6 218.2 L331.3 193.2 L328.7 191.5 L312.7 215.7 Z" fill="url(#L79)"/><path d="M314.4 219.3 L343.3 221.6 L343.6 218.4 L314.9 214.6 Z" fill="url(#L80)"/><path d="M283.6 234.7 L298.0 210.0 L294.8 208.0 L278.9 231.8 Z" fill="url(#L81)"/><path d="M298.2 209.0 L297.6 186.7 L295.1 186.7 L294.5 209.0 Z" fill="url(#L82)"/><path d="M297.2 210.7 L317.0 200.4 L315.9 198.1 L295.6 207.3 Z" fill="url(#L83)"/><path d="M260.0 273.6 L258.7 237.0 L253.3 237.0 L252.0 273.6 Z" fill="url(#L84)"/><path d="M258.3 235.6 L242.4 211.8 L239.3 213.7 L253.7 238.4 Z" fill="url(#L85)"/><path d="M241.7 211.1 L221.4 201.9 L220.3 204.1 L240.0 214.4 Z" fill="url(#L86)"/><path d="M242.7 212.8 L242.1 190.5 L239.6 190.5 L239.0 212.8 Z" fill="url(#L87)"/><path d="M258.3 238.4 L272.7 213.7 L269.6 211.8 L253.7 235.6 Z" fill="url(#L88)"/><path d="M273.0 212.8 L272.4 190.5 L269.9 190.5 L269.3 212.8 Z" fill="url(#L89)"/><path d="M272.0 214.4 L291.7 204.1 L290.6 201.9 L270.3 211.1 Z" fill="url(#L90)"/><path d="M258.2 237.0 L257.5 215.0 L254.5 215.0 L253.8 237.0 Z" fill="url(#L91)"/><path d="M257.3 214.2 L247.8 199.9 L246.1 201.0 L254.7 215.8 Z" fill="url(#L92)"/><path d="M257.3 215.8 L265.9 201.0 L264.2 199.9 L254.7 214.2 Z" fill="url(#L93)"/>
    <circle cx="80.6" cy="268.5" r="5.5" fill="url(#leaf)"/><circle cx="76.4" cy="228.8" r="5.5" fill="url(#leaf)"/><circle cx="98.8" cy="182.8" r="5.5" fill="url(#leaf)"/><circle cx="132.7" cy="161.6" r="5.5" fill="url(#leaf)"/><circle cx="96.1" cy="227.0" r="4.7" fill="url(#leaf)"/><circle cx="109.5" cy="199.4" r="4.7" fill="url(#leaf)"/><circle cx="154.5" cy="148.0" r="5.5" fill="url(#leaf)"/><circle cx="188.3" cy="126.8" r="5.5" fill="url(#leaf)"/><circle cx="239.5" cy="126.8" r="5.5" fill="url(#leaf)"/><circle cx="273.4" cy="148.0" r="5.5" fill="url(#leaf)"/><circle cx="198.6" cy="143.7" r="4.7" fill="url(#leaf)"/><circle cx="229.3" cy="143.7" r="4.7" fill="url(#leaf)"/><circle cx="126.5" cy="213.7" r="4.7" fill="url(#leaf)"/><circle cx="139.9" cy="186.1" r="4.7" fill="url(#leaf)"/><circle cx="173.3" cy="165.3" r="4.7" fill="url(#leaf)"/><circle cx="204.0" cy="165.3" r="4.7" fill="url(#leaf)"/><circle cx="153.5" cy="193.0" r="4.7" fill="url(#leaf)"/><circle cx="173.5" cy="180.5" r="4.7" fill="url(#leaf)"/><circle cx="238.6" cy="148.0" r="5.5" fill="url(#leaf)"/><circle cx="272.5" cy="126.8" r="5.5" fill="url(#leaf)"/><circle cx="323.7" cy="126.8" r="5.5" fill="url(#leaf)"/><circle cx="357.5" cy="148.0" r="5.5" fill="url(#leaf)"/><circle cx="282.7" cy="143.7" r="4.7" fill="url(#leaf)"/><circle cx="313.4" cy="143.7" r="4.7" fill="url(#leaf)"/><circle cx="379.3" cy="161.6" r="5.5" fill="url(#leaf)"/><circle cx="413.2" cy="182.8" r="5.5" fill="url(#leaf)"/><circle cx="435.6" cy="228.8" r="5.5" fill="url(#leaf)"/><circle cx="431.4" cy="268.5" r="5.5" fill="url(#leaf)"/><circle cx="402.5" cy="199.4" r="4.7" fill="url(#leaf)"/><circle cx="415.9" cy="227.0" r="4.7" fill="url(#leaf)"/><circle cx="308.0" cy="165.3" r="4.7" fill="url(#leaf)"/><circle cx="338.7" cy="165.3" r="4.7" fill="url(#leaf)"/><circle cx="372.1" cy="186.1" r="4.7" fill="url(#leaf)"/><circle cx="385.5" cy="213.7" r="4.7" fill="url(#leaf)"/><circle cx="338.5" cy="180.5" r="4.7" fill="url(#leaf)"/><circle cx="358.5" cy="193.0" r="4.7" fill="url(#leaf)"/><circle cx="168.5" cy="220.0" r="4.7" fill="url(#leaf)"/><circle cx="182.0" cy="192.4" r="4.7" fill="url(#leaf)"/><circle cx="215.4" cy="171.5" r="4.7" fill="url(#leaf)"/><circle cx="246.1" cy="171.5" r="4.7" fill="url(#leaf)"/><circle cx="195.6" cy="199.2" r="4.7" fill="url(#leaf)"/><circle cx="215.6" cy="186.7" r="4.7" fill="url(#leaf)"/><circle cx="265.9" cy="171.5" r="4.7" fill="url(#leaf)"/><circle cx="296.6" cy="171.5" r="4.7" fill="url(#leaf)"/><circle cx="330.0" cy="192.4" r="4.7" fill="url(#leaf)"/><circle cx="343.5" cy="220.0" r="4.7" fill="url(#leaf)"/><circle cx="296.4" cy="186.7" r="4.7" fill="url(#leaf)"/><circle cx="316.4" cy="199.2" r="4.7" fill="url(#leaf)"/><circle cx="220.8" cy="203.0" r="4.7" fill="url(#leaf)"/><circle cx="240.9" cy="190.5" r="4.7" fill="url(#leaf)"/><circle cx="271.1" cy="190.5" r="4.7" fill="url(#leaf)"/><circle cx="291.2" cy="203.0" r="4.7" fill="url(#leaf)"/><circle cx="246.9" cy="200.5" r="4.7" fill="url(#leaf)"/><circle cx="265.1" cy="200.5" r="4.7" fill="url(#leaf)"/>
  </g>
</svg>